<svg width="352" height="137" viewBox="0 0 352 137" fill="none" xmlns="http://www.w3.org/2000/svg">
<path d="M57.1032 43.7832L36.3326 75.4417L52.1472 72.069C52.4593 72.5853 52.7714 73.1015 53.0834 73.6178L3.71639 133.97H1.92529L22.2278 94.771L7.30875 97.9501C6.83045 97.247 6.78974 97.1961 6.31144 96.493L26.4409 65.3949L11.3184 68.6148C10.8401 67.8506 10.8502 67.8506 10.3719 67.0762L59.7084 6.75488H61.5199L41.4922 45.4441L56.1059 42.3261C56.5944 43.0292 56.6249 43.0801 57.1032 43.7832Z" fill="white"/>
<path d="M122.891 111.43L139.838 31.4531H154.411L137.464 111.43H122.891Z" fill="white"/>
<path d="M154.645 88.4089C154.645 70.144 170.189 54.5811 189.079 54.5811C207.214 54.5811 218.008 69.9279 212.179 88.7332H169.001C169.541 95.8662 174.507 99.9731 181.415 99.9731C187.892 99.9731 193.397 97.055 197.175 92.1916L208.725 97.5954C203.112 105.917 192.533 112.51 180.66 112.51C165.439 112.51 154.645 103.107 154.645 88.4089ZM171.268 77.6013H199.334C198.902 71.9813 194.369 67.1179 187.676 67.1179C181.091 67.1179 174.615 71.1167 171.268 77.6013Z" fill="white"/>
<path d="M221.845 88.4089C221.845 70.144 237.389 54.5811 256.279 54.5811C274.414 54.5811 285.208 69.9279 279.379 88.7332H236.201C236.741 95.8662 241.707 99.9731 248.615 99.9731C255.092 99.9731 260.597 97.055 264.375 92.1916L275.925 97.5954C270.312 105.917 259.733 112.51 247.859 112.51C232.639 112.51 221.845 103.107 221.845 88.4089ZM238.468 77.6013H266.534C266.102 71.9813 261.568 67.1179 254.876 67.1179C248.291 67.1179 241.815 71.1167 238.468 77.6013Z" fill="white"/>
<path d="M304.029 97.812L301.114 111.43H286.542L303.489 31.4531H318.061L308.454 76.3048L331.123 55.6622H351.201L324.214 79.7632L342.997 111.43H326.157L313.204 89.5982L304.029 97.812Z" fill="white"/>
<path d="M83.2612 111.43L92.3286 68.5233H81.1023L83.9089 55.6622H95.1351L95.6749 53.0684C98.8053 37.5054 106.253 31.4531 122.661 31.4531H129.246L126.439 44.3142H119.962C113.918 44.3142 111.651 46.2596 110.355 52.2038L109.708 55.6622H124.064L121.366 68.5233H106.901L97.8338 111.43H83.2612Z" fill="white"/>
</svg>
